<svg width="30" height="14" viewBox="0 0 30 14" fill="none" xmlns="http://www.w3.org/2000/svg">
<path id="Vector" d="M29.3745 10.6486C29.2431 10.7185 29.0983 10.7635 28.9482 10.7811C28.7981 10.7987 28.6458 10.7885 28.4999 10.7511C28.3541 10.7138 28.2176 10.65 28.0982 10.5634C27.9788 10.4768 27.879 10.3691 27.8043 10.2465L25.0722 5.79586C23.4838 6.79708 21.7317 7.55134 19.8841 8.02921L20.7281 12.7506C20.753 12.8896 20.7483 13.0318 20.7142 13.1691C20.6802 13.3064 20.6174 13.4361 20.5295 13.5507C20.4417 13.6654 20.3304 13.7628 20.2021 13.8374C20.0739 13.9119 19.9311 13.9622 19.782 13.9853C19.7206 13.9946 19.6586 13.9995 19.5965 14C19.3243 13.9996 19.0612 13.9093 18.8537 13.7451C18.6462 13.5809 18.5079 13.3535 18.4634 13.1032L17.6337 8.46757C15.884 8.69456 14.109 8.69456 12.3593 8.46757L11.5296 13.1032C11.4849 13.3539 11.3462 13.5817 11.1382 13.746C10.9301 13.9102 10.6662 14.0003 10.3936 14C10.33 13.9998 10.2665 13.9948 10.2038 13.9853C10.0547 13.9622 9.9119 13.9119 9.78363 13.8374C9.65536 13.7628 9.54412 13.6654 9.45624 13.5507C9.36837 13.4361 9.3056 13.3064 9.27152 13.1691C9.23744 13.0318 9.23272 12.8896 9.25762 12.7506L10.106 8.02921C8.25915 7.54983 6.50798 6.79421 4.92077 5.79184L2.19729 10.2465C2.04475 10.4943 1.79285 10.6754 1.49703 10.7501C1.2012 10.8248 0.885676 10.7868 0.619863 10.6446C0.354049 10.5024 0.159722 10.2676 0.0796308 9.99178C-0.000460563 9.716 0.0402446 9.42184 0.192792 9.17404L3.06869 4.48212C2.05853 3.66852 1.12964 2.77114 0.293448 1.80103C0.189166 1.69249 0.109707 1.56527 0.0599189 1.42714C0.0101312 1.28901 -0.00894006 1.14287 0.00386971 0.997647C0.0166795 0.85242 0.0611015 0.711151 0.134424 0.582461C0.207746 0.453771 0.308431 0.340361 0.430332 0.249154C0.552233 0.157947 0.692793 0.0908571 0.843432 0.0519781C0.99407 0.0130992 1.15163 0.00324707 1.30649 0.0230239C1.46135 0.0428008 1.61026 0.0917916 1.74413 0.167005C1.87801 0.242219 1.99403 0.342078 2.08513 0.460487C4.47213 3.21397 8.64793 6.49294 14.995 6.49294C21.3421 6.49294 25.518 3.20995 27.9049 0.460487C27.995 0.339654 28.1108 0.237391 28.245 0.16006C28.3793 0.0827284 28.5292 0.031983 28.6854 0.010981C28.8417 -0.010021 29.0008 -0.000830533 29.1531 0.0379807C29.3053 0.0767919 29.4474 0.144394 29.5704 0.23658C29.6934 0.328767 29.7947 0.443566 29.8681 0.573835C29.9415 0.704104 29.9853 0.847056 29.9969 0.993799C30.0085 1.14054 29.9875 1.28793 29.9354 1.42681C29.8832 1.56568 29.801 1.69307 29.6938 1.80103C28.8576 2.77114 27.9287 3.66852 26.9185 4.48212L29.7944 9.17404C29.8716 9.29634 29.922 9.43172 29.9427 9.57231C29.9633 9.71291 29.9539 9.85593 29.9148 9.99309C29.8758 10.1303 29.8079 10.2588 29.7152 10.3713C29.6224 10.4839 29.5066 10.5781 29.3745 10.6486Z" fill="black"/>
</svg>
