<svg width="56" height="50" viewBox="0 0 56 50" fill="none" xmlns="http://www.w3.org/2000/svg">
<g id="fa6-solid:house" clip-path="url(#clip0_915_645)">
<path id="Vector" d="M55.9806 24.9512C55.9806 26.709 54.5222 28.0859 52.8695 28.0859H49.7583L49.8264 43.7305C49.8264 43.9941 49.807 44.2578 49.7778 44.5215V46.1035C49.7778 48.2617 48.0375 50.0098 45.8889 50.0098H44.3333C44.2264 50.0098 44.1195 50.0098 44.0125 50C43.8764 50.0098 43.7403 50.0098 43.6042 50.0098L40.4445 50H38.1111C35.9625 50 34.2222 48.252 34.2222 46.0938V37.5C34.2222 35.7715 32.832 34.375 31.1111 34.375H24.8889C23.1681 34.375 21.7778 35.7715 21.7778 37.5V46.0938C21.7778 48.252 20.0375 50 17.8889 50H12.4542C12.3083 50 12.1625 49.9902 12.0167 49.9805C11.9 49.9902 11.7833 50 11.6667 50H10.1111C7.96251 50 6.22224 48.252 6.22224 46.0938V35.1562C6.22224 35.0684 6.22224 34.9707 6.23196 34.8828V28.0762H3.12085C1.37085 28.0762 0.00973511 26.709 0.00973511 24.9414C0.00973511 24.0625 0.301402 23.2812 0.981957 22.5977L25.9 0.78125C26.5806 0.0976562 27.3583 0 28.0389 0C28.7195 0 29.4972 0.195312 30.0806 0.683594L54.9111 22.6074C55.6889 23.291 56.0778 24.0723 55.9806 24.9512Z" fill="#F1F5FE"/>
</g>
<defs>
<clipPath id="clip0_915_645">
<rect width="56" height="50" fill="white"/>
</clipPath>
</defs>
</svg>
