<svg width="50" height="54" viewBox="0 0 50 54" fill="none" xmlns="http://www.w3.org/2000/svg">
<path id="Vector" d="M21.7708 0C18.428 0 15.2221 1.44866 12.8583 4.02728C10.4946 6.60591 9.16667 10.1033 9.16667 13.75C9.16667 17.3967 10.4946 20.8941 12.8583 23.4727C15.2221 26.0513 18.428 27.5 21.7708 27.5C25.1137 27.5 28.3196 26.0513 30.6833 23.4727C33.0471 20.8941 34.375 17.3967 34.375 13.75C34.375 10.1033 33.0471 6.60591 30.6833 4.02728C28.3196 1.44866 25.1137 0 21.7708 0ZM25.2083 39.375C25.2086 37.5286 25.6035 35.7076 26.3618 34.0569C27.12 32.4061 28.2207 30.9709 29.5764 29.8654C30.9321 28.7599 32.5054 28.0145 34.1713 27.6884C35.8373 27.3623 37.55 27.4646 39.1734 27.9869C40.7968 28.5093 42.2862 29.4375 43.5232 30.6977C44.7603 31.9579 45.7109 33.5155 46.2996 35.2466C46.8882 36.9778 47.0988 38.8348 46.9144 40.6703C46.73 42.5057 46.1559 44.269 45.2375 45.82L49.0737 49.9975L45.8356 53.535L41.9971 49.3525C40.3532 50.5101 38.4537 51.1629 36.4984 51.2422C34.5432 51.3216 32.6045 50.8245 30.8863 49.8034C29.1681 48.7823 27.7339 47.2749 26.7348 45.4397C25.7356 43.6045 25.2083 41.5095 25.2083 39.375ZM36.0938 32.5C34.4223 32.5 32.8194 33.2243 31.6375 34.5136C30.4556 35.8029 29.7917 37.5516 29.7917 39.375C29.7917 41.1984 30.4556 42.947 31.6375 44.2364C32.8194 45.5257 34.4223 46.25 36.0938 46.25C37.7652 46.25 39.3681 45.5257 40.55 44.2364C41.7319 42.947 42.3958 41.1984 42.3958 39.375C42.3958 37.5516 41.7319 35.8029 40.55 34.5136C39.3681 33.2243 37.7652 32.5 36.0938 32.5ZM24.6354 30C22.7715 32.7021 21.7658 35.9933 21.7708 39.375C21.7708 43.4775 23.2215 47.2125 25.591 50H0V45C0 41.0217 1.44866 37.2064 4.02728 34.3934C6.60591 31.5804 10.1033 30 13.75 30H24.6354Z" fill="#F1F5FE"/>
</svg>
