<svg width="55" height="60" viewBox="0 0 55 60" fill="none" xmlns="http://www.w3.org/2000/svg">
<g id="tdesign:user-add-filled">
<path id="Vector" d="M24.7708 4C21.428 4 18.2221 5.44866 15.8583 8.02728C13.4946 10.6059 12.1667 14.1033 12.1667 17.75C12.1667 21.3967 13.4946 24.8941 15.8583 27.4727C18.2221 30.0513 21.428 31.5 24.7708 31.5C28.1137 31.5 31.3196 30.0513 33.6833 27.4727C36.0471 24.8941 37.375 21.3967 37.375 17.75C37.375 14.1033 36.0471 10.6059 33.6833 8.02728C31.3196 5.44866 28.1137 4 24.7708 4ZM51.125 46.5H41.9583V56.5H37.375V46.5H28.2083V41.5H37.375V31.5H41.9583V41.5H51.125V46.5ZM27.9242 34C25.8757 36.8537 24.7652 40.3754 24.7708 44C24.7708 47.7725 25.9488 51.2425 27.9242 54H3V49C3 45.0218 4.44866 41.2064 7.02728 38.3934C9.60591 35.5804 13.1033 34 16.75 34H27.9242Z" fill="#F1F5FE"/>
</g>
</svg>
